<?xml version="1.0" encoding="UTF-8" standalone="no"?>
<!DOCTYPE svg PUBLIC "-//W3C//DTD SVG 1.1//EN" "http://www.w3.org/Graphics/SVG/1.1/DTD/svg11.dtd">
<svg width="100%" height="100%" viewBox="0 0 23 23" version="1.1" xmlns="http://www.w3.org/2000/svg" xmlns:xlink="http://www.w3.org/1999/xlink" xml:space="preserve" xmlns:serif="http://www.serif.com/" style="fill-rule:evenodd;clip-rule:evenodd;stroke-linejoin:round;stroke-miterlimit:2;">
    <g transform="matrix(1,0,0,1,-303.775,-423.91)">
        <path d="M326.207,423.91C321.414,423.91 316.586,424.688 315.193,426.178C313.804,424.689 308.974,423.91 304.183,423.91C303.956,423.91 303.775,424.094 303.775,424.32L303.775,443.59C303.775,443.816 303.957,444 304.183,444C310.751,444 314.783,445.365 314.783,446.344C314.783,446.569 314.969,446.753 315.193,446.753C315.422,446.753 315.603,446.568 315.603,446.344C315.603,445.365 319.636,444 326.207,444C326.432,444 326.617,443.815 326.617,443.59L326.617,424.32C326.617,424.094 326.432,423.91 326.207,423.91ZM314.783,445.083C313.054,443.869 308.845,443.222 304.595,443.182L304.595,424.732C310.917,424.788 314.783,426.117 314.783,427.075L314.783,445.083ZM325.799,443.182C321.547,443.222 317.332,443.87 315.604,445.083L315.604,427.074C315.604,426.116 319.471,424.787 325.799,424.731L325.799,443.182Z" style="fill:white;fill-rule:nonzero;"/>
    </g>
</svg>
