<?xml version="1.0" encoding="UTF-8" standalone="no"?>
<!DOCTYPE svg PUBLIC "-//W3C//DTD SVG 1.1//EN" "http://www.w3.org/Graphics/SVG/1.1/DTD/svg11.dtd">
<svg width="100%" height="100%" viewBox="0 0 23 26" version="1.1" xmlns="http://www.w3.org/2000/svg" xmlns:xlink="http://www.w3.org/1999/xlink" xml:space="preserve" xmlns:serif="http://www.serif.com/" style="fill-rule:evenodd;clip-rule:evenodd;stroke-linejoin:round;stroke-miterlimit:2;">
    <g transform="matrix(1,0,0,1,-97.929,-270.094)">
        <path d="M120.75,286.571C120.746,286.55 120.763,286.531 120.755,286.509L116.625,273.13C116.573,272.96 116.414,272.842 116.235,272.842L112.107,272.837L112.106,272.837C111.88,272.837 111.696,273.02 111.696,273.247C111.696,273.473 111.88,273.656 112.105,273.656L115.932,273.661L119.809,286.221L113.281,286.221C113.169,286.221 113.061,286.267 112.984,286.348L109.346,290.171L105.514,286.34C105.437,286.264 105.333,286.22 105.224,286.22L98.896,286.22L102.771,273.66L106.599,273.655C106.825,273.655 107.008,273.472 107.008,273.246C107.008,273.019 106.824,272.836 106.598,272.836L106.597,272.836L102.467,272.841C102.288,272.841 102.13,272.958 102.077,273.131L97.948,286.509C97.941,286.53 97.957,286.549 97.953,286.571C97.95,286.592 97.929,286.606 97.929,286.629L97.929,294.887C97.929,295.112 98.113,295.297 98.338,295.297L120.362,295.297C120.589,295.297 120.772,295.112 120.772,294.887L120.772,286.629C120.774,286.607 120.753,286.593 120.75,286.571ZM119.954,294.478L98.75,294.478L98.75,287.04L105.054,287.04L109.062,291.048C109.139,291.125 109.243,291.168 109.351,291.168C109.472,291.169 109.572,291.12 109.649,291.04L113.456,287.04L119.954,287.04L119.954,294.478Z" style="fill:white;fill-rule:nonzero;"/>
        <path d="M106.89,283.587C106.729,283.427 106.471,283.427 106.31,283.587C106.15,283.747 106.15,284.006 106.31,284.167L109.063,286.919C109.14,286.997 109.244,287.04 109.353,287.04C109.462,287.04 109.565,286.997 109.643,286.919L112.394,284.167C112.554,284.006 112.554,283.747 112.394,283.587C112.234,283.427 111.975,283.427 111.814,283.587L109.763,285.641L109.763,270.504C109.763,270.278 109.579,270.094 109.353,270.094C109.127,270.094 108.943,270.278 108.943,270.504L108.943,285.641L106.89,283.587Z" style="fill:white;fill-rule:nonzero;"/>
    </g>
</svg>
