<?xml version="1.0" encoding="UTF-8" standalone="no"?>
<!DOCTYPE svg PUBLIC "-//W3C//DTD SVG 1.1//EN" "http://www.w3.org/Graphics/SVG/1.1/DTD/svg11.dtd">
<svg width="100%" height="100%" viewBox="0 0 23 23" version="1.1" xmlns="http://www.w3.org/2000/svg" xmlns:xlink="http://www.w3.org/1999/xlink" xml:space="preserve" xmlns:serif="http://www.serif.com/" style="fill-rule:evenodd;clip-rule:evenodd;stroke-linejoin:round;stroke-miterlimit:2;">
    <g transform="matrix(1,0,0,1,-525.31,-271.274)">
        <path d="M531.229,274.799L536.733,274.799C536.958,274.799 537.141,274.615 537.141,274.389C537.141,274.164 536.957,273.979 536.733,273.979L531.229,273.979C531.002,273.979 530.819,274.164 530.819,274.389C530.818,274.615 531.002,274.799 531.229,274.799Z" style="fill:white;fill-rule:nonzero;"/>
        <path d="M531.229,280.354L542.239,280.354C542.464,280.354 542.649,280.17 542.649,279.944C542.649,279.719 542.463,279.534 542.239,279.534L531.229,279.534C531.002,279.534 530.819,279.72 530.819,279.944C530.818,280.169 531.002,280.354 531.229,280.354Z" style="fill:white;fill-rule:nonzero;"/>
        <path d="M531.229,277.6L536.733,277.6C536.958,277.6 537.141,277.416 537.141,277.19C537.141,276.964 536.957,276.78 536.733,276.78L531.229,276.78C531.002,276.78 530.819,276.964 530.819,277.19C530.818,277.416 531.002,277.6 531.229,277.6Z" style="fill:white;fill-rule:nonzero;"/>
        <path d="M548.152,279.943C548.152,279.828 548.09,279.731 548.009,279.654C547.999,279.646 548.003,279.628 547.991,279.62L545.395,277.608L545.395,271.684C545.395,271.458 545.213,271.274 544.987,271.274L528.473,271.274C528.246,271.274 528.063,271.458 528.063,271.684L528.063,277.608L525.467,279.62C525.457,279.628 525.461,279.646 525.451,279.654C525.371,279.731 525.31,279.828 525.31,279.943L525.31,293.707C525.31,293.734 525.326,293.755 525.331,293.78C525.335,293.801 525.325,293.82 525.331,293.84C525.337,293.855 525.351,293.86 525.356,293.873C525.377,293.918 525.407,293.953 525.442,293.988C525.463,294.011 525.481,294.033 525.508,294.049C525.52,294.056 525.526,294.068 525.537,294.075C525.594,294.102 525.656,294.116 525.717,294.116L547.738,294.116C547.799,294.116 547.861,294.102 547.918,294.075C547.93,294.068 547.936,294.056 547.947,294.049C547.974,294.033 547.992,294.011 548.015,293.988C548.048,293.953 548.079,293.918 548.099,293.873C548.105,293.86 548.12,293.854 548.124,293.84C548.13,293.82 548.122,293.802 548.126,293.78C548.13,293.755 548.147,293.734 548.147,293.707L548.147,279.943L548.152,279.943ZM547.332,280.781L547.332,292.87L539.535,286.824L547.332,280.781ZM547.072,279.943L545.396,281.241L545.396,278.644L547.072,279.943ZM528.884,272.093L544.578,272.093L544.578,281.877L539.607,285.73L536.732,287.96L533.853,285.73L528.884,281.877L528.884,272.093ZM526.131,280.781L533.926,286.824L526.131,292.87L526.131,280.781ZM528.064,278.645L528.064,281.242L526.39,279.944L528.064,278.645ZM526.918,293.297L534.596,287.342L536.481,288.802C536.553,288.859 536.643,288.888 536.733,288.888C536.819,288.888 536.909,288.859 536.983,288.802L538.868,287.342L546.544,293.297L526.918,293.297Z" style="fill:white;fill-rule:nonzero;"/>
    </g>
</svg>
