<?xml version="1.0" encoding="UTF-8" standalone="no"?>
<!DOCTYPE svg PUBLIC "-//W3C//DTD SVG 1.1//EN" "http://www.w3.org/Graphics/SVG/1.1/DTD/svg11.dtd">
<svg width="100%" height="100%" viewBox="0 0 1705 2713" version="1.1" xmlns="http://www.w3.org/2000/svg" xmlns:xlink="http://www.w3.org/1999/xlink" xml:space="preserve" xmlns:serif="http://www.serif.com/" style="fill-rule:evenodd;clip-rule:evenodd;stroke-linejoin:round;stroke-miterlimit:2;">
    <g transform="matrix(4.16667,0,0,4.16667,0,0)">
        <path d="M383.743,606.972L383.848,607.121C383,605.174 382.851,602.902 380.641,601.586C379.888,599.517 378.36,598.136 376,597.498C375.09,596.497 374.083,595.585 372.94,594.792C372.715,593.985 372.13,593.485 371.245,593.245L371.421,593.409C367.993,590.846 364.965,587.9 361.829,585.057C358.927,583.022 303.072,543.764 300.19,541.618L298.879,540.173C283.231,529.044 269.52,515.774 261.721,499.185C261.543,498.804 261.005,498.574 261.002,498.192C258.634,495.336 257.959,492.716 255.806,488.843C255.338,487.836 250.859,481.539 249.059,477.918C249.041,477.881 249.029,477.844 249.011,477.806C248.821,477.599 248.635,477.388 248.46,477.171C247.511,475.709 246.617,474.216 245.352,472.937L245.399,472.998C244.565,472.218 244.86,470.855 243.644,470.272C240.748,465.782 238.609,460.95 235.711,456.462L235.836,456.608C235.355,455.629 235.513,454.391 234.368,453.683C233.247,451.385 232.98,448.774 231.127,446.744L231.243,446.878C230.326,444.497 229.611,442.05 228.28,439.807C226.814,436.687 226.852,433.145 224.852,430.174L224.983,430.315C223.979,428.999 225.046,427.146 223.544,425.961L223.588,426.039C221.984,424.39 223.811,421.995 222.027,420.386L221.72,420.004L221.939,419.578C220.816,408.737 213.178,399.054 221.903,387.053C223.016,386.478 222.814,385.217 223.534,384.437C224.182,384.039 224.739,383.566 225.124,382.947C226.085,382.373 227.455,382.517 228.221,381.601C233.271,379.682 237.928,380.351 242.527,382.959C243.294,383.927 244.673,383.787 245.703,384.28C247.362,385.623 248.935,387.043 250.473,388.494L250.302,388.353C250.563,389.066 251.134,389.534 251.83,389.904C252.212,390.491 252.751,390.949 253.37,391.339C254.437,392.646 255.007,394.284 256.604,395.237C256.786,395.985 257.368,396.439 258.062,396.809C258.437,397.396 258.976,397.848 259.571,398.255C260,398.775 260.545,399.202 261.01,399.693L261.026,399.709C264.191,403.339 267.637,406.714 271.991,409.269C272.452,409.802 272.961,410.287 273.644,410.599C274.015,411.209 274.526,411.685 275.271,411.936C275.559,412.548 276.083,413.043 276.794,413.245C277.075,413.942 277.609,414.42 278.36,414.711C278.644,415.302 279.114,415.735 279.731,416.043C280.149,416.648 280.696,417.18 281.419,417.484C281.78,418.099 282.299,418.571 283.006,418.874C283.381,419.536 283.909,420.045 284.769,420.221L284.597,420.051C287.747,423.015 291.203,425.598 295.588,427.025C298.035,429.686 301.485,431.057 304.768,432.643C305.145,433.306 305.661,433.826 306.519,433.992C307.87,435.955 310.503,435.911 312.484,436.89C312.979,437.466 313.488,438.026 314.362,438.165L314.186,437.996C316.253,440.218 319.332,440.96 322.046,442.233C324.114,444.37 327.157,445.089 329.793,446.4C331.017,447.803 332.733,448.554 334.54,449.185L334.351,449.083C344.99,453.035 355.78,454.339 366.86,450.542L366.695,450.631C368.902,449.887 371.386,449.636 373.009,447.857C376.762,446.34 378.51,443.438 380.072,440.234C384.349,431.456 379.089,424.064 375.962,416.342L376.08,416.467C374.651,414.82 376.482,412.416 374.516,410.895C373.587,407.149 373.375,403.239 371.278,399.76L371.407,399.889C369.164,391.163 367.686,382.335 366.851,373.419C366.504,373.09 366.489,372.75 366.805,372.398C365.697,365.33 365.655,358.264 366.819,351.198L366.727,351.301C368.316,349.719 367.443,347.787 367.682,346.013C368.557,339.536 365.893,333.333 366.013,326.851C366.337,309.373 366.024,291.886 366.181,274.404C366.216,270.467 365.764,266.507 365.997,262.568C365.453,256.801 366.132,251.087 367.007,245.308C368.192,237.482 369.074,229.624 370.262,221.799C370.386,220.979 370.53,220.164 370.676,219.35C370.688,218.925 370.708,218.501 370.745,218.077C368.1,214.48 363.655,214.809 359.719,214.219C353.893,213.347 348.928,213.345 342.428,211.719C338.511,210.573 337.316,210.345 338.294,207.126C339.154,204.291 339.372,201.321 340.458,198.54C341.01,195.665 342.408,192.811 340.799,189.868C339.12,187.105 336.184,186.739 333.036,186.502C323.345,185.77 329.471,186.158 320.011,185.548C316.434,185.285 316.434,185.285 314.347,187.275C312.105,191.781 309.191,196.891 307.662,201.591C307.15,203.088 305.178,205.799 303.447,207.246C300.419,210.403 297.427,208.131 294.384,207.653C291.389,207.182 288.342,206.454 286.377,208.003C283.617,216.475 281.668,224.715 280.491,233.572C279.99,237.339 279.245,241.088 278.504,244.839C278.367,252.307 277.242,260.268 275.333,267.384C274.881,269.067 273.683,270.019 272.273,270.381C271.752,270.546 271.167,270.64 270.511,270.64C268.587,270.64 267.244,269.847 266.469,268.738C266.2,268.522 265.945,268.291 265.726,268.034C261.366,262.934 260.506,261.391 258.142,256.815C255.357,254.973 251.565,255.219 248.242,255.258C240.557,257.2 232.972,259.443 225.174,261.019C224.759,261.103 224.362,261.141 223.981,261.144C222.482,261.52 220.792,261.327 219.309,260.174C215.656,257.33 215.126,252.954 214.384,248.93C214.296,248.521 214.214,248.109 214.139,247.696C213.148,242.942 211.42,237.144 211.152,235.268C211.053,234.775 210.866,234.359 210.178,233.793C209.175,233.602 208.286,233.601 207.029,233.793C203.845,234.485 201.465,234.546 197.845,235.302C191.834,236.558 188.526,238.438 184.512,234.711C182.866,228.872 180.804,221.334 179.512,215.42C180.15,211.841 185.162,211.876 188.012,211.228C191.375,210.464 196.815,210.34 198.803,207.158C197.653,197.044 196.136,192.778 193.334,182.658C192.694,181.241 191.144,181.143 189.845,180.243C182.7,180.256 179.215,181.453 177.012,181.451C175.548,181.449 170.017,182.529 168.553,182.518C165.173,182.492 169.207,182.449 168.553,182.518C167.131,182.669 164.388,182.96 162.553,184.846C160.64,186.813 160.846,189.354 160.928,190.047C161.48,192.806 161.127,194.692 160.668,195.936C160.515,196.348 160.303,196.865 160.047,197.704C159.816,198.463 159.602,199.547 159.487,201.588C158.888,212.281 152.79,216.284 141.367,212.776C139.8,212.296 137.954,210.341 136.365,212.042C136.567,214.054 136.625,216.078 136.556,218.127C136.71,218.726 136.86,219.326 137,219.929C137.164,220.635 137.143,221.344 136.986,222.015C138.145,222.47 139.099,223.367 139.5,224.808C142.192,234.485 143.452,244.498 145.751,254.261C148.106,264.257 152.836,273.611 155.25,283.581C156.007,286.711 153.303,288.827 150.545,289.096C152.007,293.747 153.64,298.355 155.382,302.935L155.29,302.823C156.151,304.972 157.011,307.516 154.769,308.993C152.644,310.394 150.831,307.864 148.755,307.33C148.424,306.664 147.915,306.173 147.1,305.986C146.895,305.275 146.349,304.828 145.628,304.518C145.316,303.891 144.753,303.448 144.189,303.006L144.216,303.04C143.341,302.343 143.64,300.966 142.429,300.465C142.245,299.744 141.643,299.305 141.023,298.879L141.069,298.939C140.237,298.148 140.521,296.802 139.348,296.18C138.757,295.308 138.961,294.033 137.683,293.508C137.083,291.896 136.072,290.51 134.732,289.306C133.851,287.832 133.001,286.34 131.631,285.154C130.731,283.679 129.858,282.188 128.524,280.966C127.82,280.144 128.063,278.826 126.802,278.294C124.568,274.654 122.837,270.79 120.492,267.2L120.617,267.344C120.121,266.353 120.275,265.108 119.147,264.362C118.511,263.492 118.639,262.32 117.754,261.549L117.763,261.568C116.278,260.551 117.786,258.42 115.915,257.546C115.45,256.601 115.577,255.403 114.419,254.755C113.857,253.857 114.032,252.613 112.824,252.02C112.12,250.422 111.016,249.124 109.254,248.319C105.425,246.766 105.652,247.042 102.053,248.388C100.73,248.936 94.06,251.974 92.678,252.38C91.992,252.581 93.333,252.104 92.678,252.38C88.774,254.136 84.176,257.022 80.428,259.029C77.358,261.091 76.357,261.475 76.113,264.714C77.499,272.559 82.105,279.593 83.399,287.468C82.963,292.855 77.391,293.341 73.553,294.975C62.195,299.811 58.911,307.859 60.402,316.318C61.773,320.004 63.223,323.655 64.744,327.278C64.839,327.436 64.93,327.594 65.027,327.752L64.956,327.699C64.959,327.737 64.966,327.774 64.97,327.811C70.901,341.865 77.867,355.504 85.182,369.094C85.224,369.128 85.265,369.163 85.307,369.197C85.327,369.29 85.361,369.379 85.384,369.471C86.372,371.304 87.362,373.136 88.36,374.968C88.52,375.26 88.637,375.549 88.725,375.835C91.544,379.67 95.017,383.4 95.413,388.803C93.587,388.613 90.926,388.15 88.043,386.891C86.663,386.288 85.574,385.652 83.918,384.563C81.678,383.089 78.644,380.945 75.168,378.02C70.452,373.461 65.515,368.211 60.621,362.224C57.701,358.652 55.078,355.162 52.72,351.801C52.215,351.08 51.213,350.787 50.323,351.097C47.342,352.134 44.047,353.459 40.577,355.16C36.812,357.006 33.575,358.935 30.852,360.754C30.207,361.186 29.929,361.918 30.119,362.615C30.61,364.416 31.227,366.351 32.005,368.384L37.432,381.023C41.064,389.383 43.029,390.77 42.051,392.773C41.025,394.875 37.084,395.859 29.196,397.827C28.459,398.012 27.702,398.134 26.962,398.315C25.297,398.722 24.041,399.406 23.682,400.703C24.332,402.657 25.184,404.531 26.159,406.356C26.189,406.37 26.209,406.39 26.241,406.403C26.316,406.614 26.423,406.809 26.516,407.011C26.824,407.568 27.141,408.123 27.467,408.674C27.969,409.378 28.545,410.043 29.13,410.702L29.088,410.642C29.924,411.432 29.642,412.772 30.798,413.404C31.119,413.874 31.224,414.442 31.422,414.969C31.615,415.272 31.803,415.576 31.995,415.879C32.104,415.979 32.228,416.07 32.376,416.151C32.564,416.448 32.672,416.782 32.775,417.118C33.136,417.696 33.499,418.274 33.857,418.853C33.887,418.87 33.908,418.893 33.94,418.91C34.405,419.631 34.83,420.372 35.254,421.115C35.969,422.275 36.688,423.434 37.413,424.589C37.741,425.038 38.086,425.48 38.47,425.9L38.43,425.84C38.867,426.259 39.004,426.817 39.186,427.353C39.398,427.678 39.601,428.005 39.815,428.329C39.866,428.406 39.919,428.482 39.969,428.559C40.009,428.589 40.039,428.624 40.083,428.652L40.02,428.564C40.221,428.779 40.353,429.027 40.458,429.286C46.42,438.236 52.804,446.835 60.449,454.747C67.732,462.284 75.681,470.075 84.447,476.283C91.99,481.623 100.83,485.375 106.361,492.662C107.118,493.659 107.329,494.642 107.166,495.529C107.645,496.224 108.092,496.947 108.462,497.735C109.377,498.479 109.069,499.823 110.171,500.474C110.829,501.31 110.671,502.514 111.681,503.192C112.933,507.317 113.245,511.635 114.917,515.675L114.813,515.555C116.893,528.238 119.708,540.776 124.286,552.961L124.182,552.83C125.176,555.657 125.199,558.78 127.429,561.232L127.316,561.104C128.31,563.932 128.229,567.093 130.619,569.489L130.488,569.352C131.487,571.663 131.726,574.254 133.638,576.231C134.132,577.207 133.951,578.468 135.162,579.143C135.709,580.065 135.566,581.277 136.663,581.969C137.304,582.824 137.12,584.07 138.265,584.688C138.84,585.571 138.653,586.827 139.891,587.389C140.522,588.996 141.623,590.354 142.801,591.671L142.757,591.614C143.603,592.386 143.306,593.75 144.516,594.333C145.586,596.516 147.447,598.17 149.247,599.865L149.077,599.72C149.353,600.423 149.918,600.894 150.617,601.257C151,601.852 151.53,602.318 152.2,602.662C153.179,604.526 154.665,605.933 156.837,606.721C157.198,607.351 157.719,607.831 158.453,608.113C158.783,608.761 159.294,609.235 160.075,609.451C160.669,610.49 162.206,610.231 162.98,611.023L162.954,611.007C163.49,611.509 163.998,612.044 164.766,612.287C166.024,613.568 167.702,614.294 169.396,614.999C172.542,617.543 176.651,618.587 180.234,620.449C180.873,621.552 182.374,621.322 183.302,621.977C187.083,624.494 191.327,626.169 195.81,627.412C196.514,628.461 197.99,628.246 198.948,628.879L198.832,628.806C206.395,633.258 215.526,633.292 223.789,635.773C225.569,637.429 228.235,635.887 230.135,637.11L229.995,636.999C236.532,639.954 243.801,640.376 250.821,641.493C264,643.59 277.028,646.623 290.444,647.35C304.987,648.138 318.531,643.178 332.587,641.132L332.426,641.251C339.775,639.947 347.305,639.389 354.399,637.04L354.259,637.141C356.664,635.719 359.8,637.568 362.128,635.801C366.955,634.76 372.301,635.187 376.497,632.364C377.691,624.09 380.873,616.193 384.23,608.389C384.072,607.921 383.92,607.459 383.743,606.972Z" style="fill:rgb(13,141,188);fill-rule:nonzero;"/>
        <path d="M135.66,140.686C135.66,146.998 138.074,148.922 145.055,148.601C146.473,148.535 147.865,148.143 149.175,147.52C149.066,146.857 149.001,146.179 148.96,145.475C147.755,144.782 146.908,143.603 146.928,141.93C146.933,141.522 146.944,141.112 146.957,140.701C146.925,140.616 146.882,140.536 146.857,140.448C145.528,135.771 145.737,131.032 146.033,126.276C144.109,126.411 142.174,126.434 140.343,126.26C138.567,127.646 137.367,129.903 136.512,133.209C136.859,133.477 136.876,133.76 136.56,134.058" style="fill:rgb(110,193,111);fill-rule:nonzero;"/>
        <path d="M206.428,62.014C201.707,62.014 195.931,63.742 193.488,64.244C193.277,64.287 193.075,64.354 192.887,64.448C191.801,64.997 191.128,65.539 190.704,66.166C189.681,67.677 189.599,69.214 189.828,71.784C189.978,73.464 190.214,75.514 190.601,77.864C190.783,78.965 191.957,79.721 193.194,79.534C197.651,78.86 202.107,78.187 206.564,77.514C207.273,77.407 207.879,77.012 208.195,76.44C209.114,74.775 210.509,71.402 209.351,67.497C208.697,65.291 208.61,63.957 207.678,62.975C207.494,62.781 206.684,62.128 206.428,62.014Z" style="fill:rgb(109,192,111);fill-rule:nonzero;"/>
        <path d="M162.319,107.225C162.327,100.315 167.496,96.076 175.106,96.601C177.21,96.746 178.359,97.746 179.186,99.257C182.054,104.504 178.255,111.97 171.901,113.598C164.918,115.387 162.313,113.654 162.319,107.225Z" style="fill:rgb(18,144,191);fill-rule:nonzero;"/>
        <path d="M229.879,636.668C247.478,640.095 265.214,642.873 282.991,645.438C290.358,646.5 297.725,646.527 305.175,645.167C314.224,643.516 323.141,641.102 332.471,640.803C331.942,641.276 331.486,642.061 330.87,642.177C322.611,643.733 314.238,644.883 306.076,646.759C295.253,649.247 284.655,647.789 274.053,646.11C261.717,644.156 249.46,641.813 237.137,639.794C234.301,639.329 231.501,639.186 229.879,636.668Z" style="fill:white;fill-rule:nonzero;"/>
        <path d="M203.815,40.273C201.181,40.706 198.545,41.128 195.899,41.47C195.476,41.614 195.01,41.679 194.516,41.693C190.909,43.848 191.58,47.175 191.705,50.248C191.821,53.104 193.299,54.519 195.608,54.635C198.575,54.006 201.485,53.107 204.374,52.159C205.199,51.578 205.877,50.798 206.293,49.682L206.208,49.816C207.564,44.24 206.862,41.177 203.815,40.273Z" style="fill:rgb(26,146,192);fill-rule:nonzero;"/>
        <path d="M178.29,76.698C178.258,80.782 174.466,84.128 169.927,84.065C166.345,84.016 165.835,81.785 165.855,79.349C165.891,74.779 169.124,71.67 173.707,71.652C176.871,71.641 178.317,73.233 178.29,76.698Z" style="fill:rgb(84,198,217);fill-rule:nonzero;"/>
        <path d="M159.678,54.917C159.776,52.916 159.882,50.916 160.04,48.92C157.146,45.819 154.153,47.753 151.16,49.694C150.699,53.054 150.357,56.426 150.012,59.796C149.971,60.191 149.88,60.554 149.755,60.894C150.967,61.651 153.121,61.434 156.463,60.405C158.634,59.153 159.292,57.355 159.685,55.461C159.672,55.286 159.669,55.105 159.678,54.917Z" style="fill:rgb(81,198,216);fill-rule:nonzero;"/>
        <path d="M44.625,169.04C44.865,167.325 44.567,165.724 46.262,164.561L46.131,164.696C46.5,164.064 47.073,163.595 47.691,163.161L47.629,163.217C48.107,162.67 48.632,162.168 49.307,161.805L49.183,161.897C51.471,160.364 53.645,160.878 55.141,162.686C57.403,165.419 55.601,167.779 53.652,169.988L53.757,169.895C53.328,170.491 52.777,170.979 52.108,171.363L52.21,171.271C48.876,173.737 45.895,174.882 44.618,169.67" style="fill:rgb(88,199,216);fill-rule:nonzero;"/>
        <path d="M114.698,515.224C118.295,524.795 118.807,534.983 122.175,544.614C123.078,547.196 124.395,549.789 124.169,552.63C123.771,552.355 123.127,552.146 123.005,551.795C118.87,539.851 114.759,527.898 114.698,515.224Z" style="fill:white;fill-rule:nonzero;"/>
        <path d="M202.952,27.68C201.997,28.028 201.064,28.433 200.084,28.714C197.787,29.374 195.314,29.867 194.092,27.393C192.996,25.174 194.536,23.467 196.312,21.973C198.264,20.332 200.571,20.607 202.902,20.92C204.761,23.163 204.669,25.417 202.952,27.68Z" style="fill:rgb(41,152,194);fill-rule:nonzero;"/>
        <path d="M149.366,74.853C155.07,76.256 155.129,76.369 153.347,82.476C151.571,84.321 149.118,84.64 147.535,82.955C145.72,81.022 145.834,78.436 147.551,76.171L147.382,76.338C147.767,75.553 148.441,75.072 149.366,74.853Z" style="fill:rgb(89,199,217);fill-rule:nonzero;"/>
        <path d="M334.236,448.752C344.942,451.514 355.742,452.633 366.745,450.212C363.99,452.649 360.233,452.692 356.81,453.131C350.328,453.963 344.069,451.955 337.709,451.231C336.267,451.067 334.79,450.244 334.236,448.752Z" style="fill:white;fill-rule:nonzero;"/>
        <path d="M354.879,579.786C359.995,584.562 365.053,589.391 371.306,593.079C370.281,591.561 369.107,590.166 367.84,588.849C363.426,586.019 359.156,582.949 354.879,579.786Z" style="fill:white;fill-rule:nonzero;"/>
        <path d="M371.292,399.558C367.673,391.02 366.338,382.171 366.736,373.089C366.924,373.242 367.262,373.383 367.282,373.552C368.256,382.265 371.091,390.752 371.292,399.558Z" style="fill:white;fill-rule:nonzero;"/>
        <path d="M198.716,628.475C206.813,631.486 215.805,631.974 223.734,635.459C215.821,635.368 208.509,632.862 201.052,630.965C199.791,630.644 199.128,629.579 198.716,628.475Z" style="fill:white;fill-rule:nonzero;"/>
        <path d="M162.59,33.033C163.982,28.472 163.018,27.385 158.253,28.054L158.436,27.883C157.668,28.136 157.144,28.63 156.722,29.224C155.455,30.186 156.014,31.677 155.583,32.881C155.556,33.565 155.536,34.247 155.525,34.93C155.567,35.002 155.613,35.064 155.657,35.132C158.032,34.965 160.421,34.012 162.59,33.033Z" style="fill:rgb(51,157,197);fill-rule:nonzero;"/>
        <path d="M332.311,640.921C339.392,638.519 346.792,637.425 354.284,636.71C347.602,640.753 340.042,641.186 332.311,640.921Z" style="fill:white;fill-rule:nonzero;"/>
        <path d="M75.531,178.049C69.078,178.655 71.944,175.305 72.721,172.841C73.1,172.216 73.479,171.945 74.101,171.519C77.19,170.255 79.744,169.752 78.847,174.149C78.178,177.527 78.407,177.213 77.928,177.508" style="fill:rgb(84,172,206);fill-rule:nonzero;"/>
        <path d="M366.69,372.067C364.699,364.999 364.918,357.934 366.705,350.868C366.7,357.934 366.695,365 366.69,372.067Z" style="fill:white;fill-rule:nonzero;"/>
        <path d="M167.339,8.968C166.831,10.887 166.323,12.806 165.815,14.726C164.683,16.629 162.923,16.278 161.53,15.3C159.908,14.162 160.303,12.601 161.385,11.194L161.315,11.277C161.788,10.793 162.22,10.281 162.617,9.746L162.77,9.595C163.378,9.261 163.94,8.873 164.461,8.438L164.4,8.481C165.592,7.635 166.643,7.461 167.339,8.968Z" style="fill:rgb(76,169,204);fill-rule:nonzero;"/>
        <path d="M243.592,470.044C239.794,465.919 237.291,461.21 235.599,456.132C239.99,459.987 242.282,464.794 243.592,470.044Z" style="fill:white;fill-rule:nonzero;"/>
        <path d="M173.566,55.591C171.722,55.541 170.667,54.855 170.766,53.535C170.915,51.548 172.06,49.991 174.468,49.775C175.955,49.641 176.863,50.661 176.897,51.906C176.954,54.048 175.55,55.229 173.566,55.591Z" style="fill:rgb(59,161,200);fill-rule:nonzero;"/>
        <path d="M260.911,399.379C264.583,402.575 268.254,405.773 271.926,408.97C266.322,407.52 262.823,404.166 260.911,399.379Z" style="fill:white;fill-rule:nonzero;"/>
        <path d="M108.357,497.426C108.043,496.278 107.605,495.236 107.078,494.272C107.15,494.882 107.044,495.464 106.795,495.996C107.316,496.473 107.836,496.949 108.357,497.426Z" style="fill:white;fill-rule:nonzero;"/>
        <path d="M376.242,633.149C376.304,632.637 376.372,632.127 376.449,631.619C371.829,633.48 366.605,633.634 361.979,635.477C364.263,635.488 366.698,635.953 368.796,635.404C371.265,634.76 374.337,634.86 376.242,633.149Z" style="fill:white;fill-rule:nonzero;"/>
        <path d="M183.128,621.609C187.43,623.285 191.965,624.538 195.775,627.107C190.541,627.118 186.158,625.59 183.128,621.609Z" style="fill:white;fill-rule:nonzero;"/>
        <path d="M284.482,419.72C288.665,421.433 292.187,423.965 295.533,426.718C290.118,426.539 286.645,423.943 284.482,419.72Z" style="fill:white;fill-rule:nonzero;"/>
        <path d="M169.175,614.591C173.14,616.024 177.112,617.444 180.241,620.18C175.807,619.479 171.536,618.523 169.175,614.591Z" style="fill:white;fill-rule:nonzero;"/>
        <path d="M111.553,502.817C114.236,506.665 114.618,510.984 114.801,515.344C111.681,511.584 111.203,507.284 111.553,502.817Z" style="fill:white;fill-rule:nonzero;"/>
        <path d="M295.391,426.613C298.739,428.24 302.233,429.68 304.757,432.362C300.475,431.934 296.95,430.535 295.391,426.613Z" style="fill:white;fill-rule:nonzero;"/>
        <path d="M374.412,410.609C371.966,407.193 371.847,403.248 371.164,399.43C374.695,402.596 374.863,406.531 374.412,410.609Z" style="fill:white;fill-rule:nonzero;"/>
        <path d="M228.17,439.491C226.108,436.533 224.997,433.308 224.739,429.844C227.926,432.486 228.345,435.906 228.17,439.491Z" style="fill:white;fill-rule:nonzero;"/>
        <path d="M127.201,560.773C129.289,563.262 130.039,566.165 130.502,569.158C126.85,567.154 126.797,564.034 127.201,560.773Z" style="fill:white;fill-rule:nonzero;"/>
        <path d="M124.067,552.499C126.079,555.017 126.836,557.916 127.313,560.902C123.78,558.846 123.691,555.743 124.067,552.499Z" style="fill:white;fill-rule:nonzero;"/>
        <path d="M314.071,437.666C316.952,438.733 319.949,439.632 321.988,441.929C318.431,441.851 315.356,441.067 314.071,437.666Z" style="fill:white;fill-rule:nonzero;"/>
        <path d="M321.845,441.822C324.74,442.868 327.593,443.976 329.746,446.103C326.22,445.973 323.137,445.198 321.845,441.822Z" style="fill:white;fill-rule:nonzero;"/>
        <path d="M231.127,446.547C229.249,444.469 228.214,442.111 228.142,439.437C230.786,441.262 231.572,443.701 231.127,446.547Z" style="fill:white;fill-rule:nonzero;"/>
        <path d="M234.285,453.423C232.263,451.429 231.206,449.081 231.013,446.414C233.964,448.067 234.636,450.557 234.285,453.423Z" style="fill:white;fill-rule:nonzero;"/>
        <path d="M248.944,477.587C248.837,477.372 248.756,477.159 248.687,476.946C248.555,476.888 248.422,476.829 248.288,476.773C248.756,478.187 249.506,479.426 250.495,480.519C249.958,479.552 249.436,478.578 248.944,477.587Z" style="fill:white;fill-rule:nonzero;"/>
        <path d="M130.373,569.022C132.182,571.1 133.404,573.393 133.649,576.045C130.578,574.432 129.893,571.941 130.373,569.022Z" style="fill:white;fill-rule:nonzero;"/>
        <path d="M144.345,593.897C146.393,595.474 148.195,597.214 149.131,599.534C146.184,598.559 144.132,596.985 144.345,593.897Z" style="fill:white;fill-rule:nonzero;"/>
        <path d="M366.58,450.3C368.399,448.822 370.609,448.039 372.946,447.479C371.922,450.369 369.422,450.639 366.58,450.3Z" style="fill:white;fill-rule:nonzero;"/>
        <path d="M306.294,433.505C308.614,434.099 310.78,434.936 312.426,436.586C309.636,436.727 307.02,436.596 306.294,433.505Z" style="fill:white;fill-rule:nonzero;"/>
        <path d="M383.733,606.79C382.013,605.214 381.068,603.279 380.442,601.195C383.902,601.966 384.107,604.244 383.733,606.79Z" style="fill:white;fill-rule:nonzero;"/>
        <path d="M354.144,636.811C356.523,635.124 359.391,635.621 362.1,635.41C359.925,638.009 356.866,636.653 354.144,636.811Z" style="fill:white;fill-rule:nonzero;"/>
        <path d="M380.561,601.339C378.609,600.27 376.978,598.914 375.812,597.144C379.236,596.901 380.811,598.307 380.561,601.339Z" style="fill:white;fill-rule:nonzero;"/>
        <path d="M152.044,602.26C154.129,603.206 155.672,604.64 156.82,606.43C153.578,606.528 152.01,605.115 152.044,602.26Z" style="fill:white;fill-rule:nonzero;"/>
        <path d="M245.498,383.874C248.034,384.487 249.553,386.006 250.356,388.164C247.853,387.523 246.248,386.08 245.498,383.874Z" style="fill:white;fill-rule:nonzero;"/>
        <path d="M223.603,635.381C225.854,635.442 228.201,635.157 230.019,636.78C227.749,636.79 225.223,637.722 223.603,635.381Z" style="fill:white;fill-rule:nonzero;"/>
        <path d="M375.964,416.136C374.136,414.544 374.434,412.458 374.293,410.474C377.06,411.847 375.94,414.124 375.964,416.136Z" style="fill:white;fill-rule:nonzero;"/>
        <path d="M248.358,476.86C246.61,475.851 245.609,474.41 245.238,472.606" style="fill:white;fill-rule:nonzero;"/>
        <path d="M164.511,611.819C166.54,612.209 168.226,613.049 169.312,614.683C166.811,614.918 165.168,614.021 164.511,611.819Z" style="fill:white;fill-rule:nonzero;"/>
        <path d="M223.473,425.709C221.845,424.065 221.79,422.079 221.912,420.055C224.31,421.531 223.362,423.735 223.473,425.709Z" style="fill:white;fill-rule:nonzero;"/>
        <path d="M329.607,445.994C331.66,446.355 333.231,447.354 334.422,448.855C331.863,449.168 330.214,448.272 329.607,445.994Z" style="fill:white;fill-rule:nonzero;"/>
        <path d="M139.726,586.951C141.491,588.002 142.339,589.538 142.686,591.341C140.414,590.56 139.319,589.154 139.726,586.951Z" style="fill:white;fill-rule:nonzero;"/>
        <path d="M253.214,390.956C255.105,391.819 256.233,393.192 256.67,395.025C254.108,394.613 253.173,393.111 253.214,390.956Z" style="fill:white;fill-rule:nonzero;"/>
        <path d="M375.955,597.242C374.169,596.88 373.074,595.899 372.64,594.325C374.56,594.568 375.656,595.548 375.955,597.242Z" style="fill:white;fill-rule:nonzero;"/>
        <path d="M224.868,429.984C223.324,428.81 223.363,427.224 223.428,425.63C225.482,426.672 225.079,428.353 224.868,429.984Z" style="fill:white;fill-rule:nonzero;"/>
        <path d="M109.991,500.053C111.276,500.672 111.647,501.703 111.628,502.91C110.128,502.389 109.916,501.285 109.991,500.053Z" style="fill:white;fill-rule:nonzero;"/>
        <path d="M108.344,497.402C109.492,498.034 109.997,498.984 110.062,500.149C108.657,499.644 108.358,498.593 108.344,497.402Z" style="fill:white;fill-rule:nonzero;"/>
        <path d="M245.284,472.668C244.029,472.085 243.585,471.084 243.478,469.909C245.064,470.321 245.305,471.427 245.284,472.668Z" style="fill:white;fill-rule:nonzero;"/>
        <path d="M235.721,456.277C234.415,455.609 234.198,454.498 234.187,453.304C235.802,453.847 235.971,454.977 235.721,456.277Z" style="fill:white;fill-rule:nonzero;"/>
        <path d="M39.7,427.998C39.764,428.095 39.829,428.19 39.893,428.286C39.92,428.297 39.94,428.311 39.967,428.321C39.925,427.149 39.511,426.148 38.315,425.509C38.312,425.626 38.315,425.739 38.318,425.854C38.776,426.569 39.23,427.287 39.7,427.998Z" style="fill:white;fill-rule:nonzero;"/>
        <path d="M221.642,386.806C221.655,385.574 222.133,384.586 223.469,384.043C223.501,385.297 223.262,386.411 221.642,386.806Z" style="fill:white;fill-rule:nonzero;"/>
        <path d="M242.326,382.532C243.703,382.508 244.924,382.762 245.623,383.966C244.174,384.121 242.903,383.957 242.326,382.532Z" style="fill:white;fill-rule:nonzero;"/>
        <path d="M224.923,382.662C225.544,381.372 226.75,381.109 228.163,381.213C227.575,382.559 226.324,382.742 224.923,382.662Z" style="fill:white;fill-rule:nonzero;"/>
        <path d="M138.089,584.255C139.336,584.881 139.743,585.916 139.847,587.099C138.162,586.687 137.96,585.552 138.089,584.255Z" style="fill:white;fill-rule:nonzero;"/>
        <path d="M195.635,627.006C196.993,627.044 198.138,627.428 198.832,628.549C197.402,628.63 196.137,628.44 195.635,627.006Z" style="fill:white;fill-rule:nonzero;"/>
        <path d="M180.084,620.069C181.424,620.15 182.554,620.555 183.226,621.669C181.801,621.72 180.539,621.519 180.084,620.069Z" style="fill:white;fill-rule:nonzero;"/>
        <path d="M159.873,608.984C161.178,609.127 162.25,609.595 162.865,610.692C161.476,610.662 160.235,610.429 159.873,608.984Z" style="fill:white;fill-rule:nonzero;"/>
        <path d="M142.643,591.283C143.888,591.868 144.375,592.846 144.454,594.034C142.872,593.626 142.628,592.522 142.643,591.283Z" style="fill:white;fill-rule:nonzero;"/>
        <path d="M136.48,581.54C137.735,582.163 138.148,583.186 138.189,584.384C136.61,583.914 136.395,582.798 136.48,581.54Z" style="fill:white;fill-rule:nonzero;"/>
        <path d="M134.995,578.717C136.241,579.39 136.51,580.473 136.559,581.648C135.016,581.101 134.829,579.983 134.995,578.717Z" style="fill:white;fill-rule:nonzero;"/>
        <path d="M133.521,575.895C134.814,576.558 135.099,577.644 135.102,578.85C133.452,578.339 133.279,577.204 133.521,575.895Z" style="fill:white;fill-rule:nonzero;"/>
        <path d="M164.461,8.438C163.898,8.824 163.334,9.21 162.77,9.596C163.334,9.21 163.898,8.824 164.461,8.438Z" style="fill:white;fill-rule:nonzero;"/>
        <path d="M404.184,103.728C403.669,103.269 403.156,102.809 402.642,102.35C403.156,102.809 403.669,103.269 404.184,103.728Z" style="fill:white;fill-rule:nonzero;"/>
        <path d="M223.413,384.109C223.555,383.275 224.071,382.753 225.023,382.598C224.794,383.359 224.256,383.862 223.413,384.109Z" style="fill:white;fill-rule:nonzero;"/>
        <path d="M282.839,418.463C283.773,418.609 284.418,419.044 284.652,419.89C283.693,419.772 283.093,419.289 282.839,418.463Z" style="fill:white;fill-rule:nonzero;"/>
        <path d="M281.269,417.106C282.2,417.274 282.772,417.767 282.983,418.59C282.08,418.397 281.509,417.901 281.269,417.106Z" style="fill:white;fill-rule:nonzero;"/>
        <path d="M279.724,415.708C280.66,415.884 281.211,416.397 281.401,417.223C280.505,417.012 279.946,416.507 279.724,415.708Z" style="fill:white;fill-rule:nonzero;"/>
        <path d="M278.194,414.29C279.139,414.473 279.68,414.999 279.863,415.832C278.951,415.622 278.392,415.109 278.194,414.29Z" style="fill:white;fill-rule:nonzero;"/>
        <path d="M276.657,412.883C277.615,413.058 278.169,413.58 278.347,414.427C277.41,414.235 276.844,413.722 276.657,412.883Z" style="fill:white;fill-rule:nonzero;"/>
        <path d="M275.094,411.506C276.053,411.669 276.626,412.178 276.818,413.026C275.869,412.855 275.294,412.348 275.094,411.506Z" style="fill:white;fill-rule:nonzero;"/>
        <path d="M273.481,410.197C274.427,410.338 275.043,410.797 275.253,411.647C274.324,411.49 273.737,411.004 273.481,410.197Z" style="fill:white;fill-rule:nonzero;"/>
        <path d="M372.831,594.475C371.866,594.296 371.308,593.769 371.131,592.914C372.109,593.08 372.679,593.598 372.831,594.475Z" style="fill:white;fill-rule:nonzero;"/>
        <path d="M312.357,436.546C313.314,436.597 313.987,436.977 314.245,437.834C313.313,437.756 312.692,437.316 312.357,436.546Z" style="fill:white;fill-rule:nonzero;"/>
        <path d="M148.961,599.39C149.903,599.591 150.408,600.143 150.573,600.968C149.679,600.73 149.137,600.207 148.961,599.39Z" style="fill:white;fill-rule:nonzero;"/>
        <path d="M150.453,600.859C151.374,601.035 151.934,601.529 152.12,602.352C151.249,602.132 150.693,601.634 150.453,600.859Z" style="fill:white;fill-rule:nonzero;"/>
        <path d="M271.867,408.929C272.781,409.06 273.388,409.496 273.614,410.313C272.748,410.134 272.167,409.671 271.867,408.929Z" style="fill:white;fill-rule:nonzero;"/>
        <path d="M156.699,606.354C157.655,606.496 158.24,606.983 158.438,607.829C157.52,607.652 156.942,607.158 156.699,606.354Z" style="fill:white;fill-rule:nonzero;"/>
        <path d="M259.411,397.878C260.285,398.075 260.773,398.574 260.897,399.362C260.402,398.867 259.907,398.372 259.411,397.878Z" style="fill:white;fill-rule:nonzero;"/>
        <path d="M158.285,607.693C159.228,607.849 159.847,608.313 160.066,609.16C159.106,609.024 158.515,608.53 158.285,607.693Z" style="fill:white;fill-rule:nonzero;"/>
        <path d="M257.898,396.409C258.803,396.609 259.308,397.135 259.472,397.937C258.948,397.428 258.423,396.918 257.898,396.409Z" style="fill:white;fill-rule:nonzero;"/>
        <path d="M256.476,394.873C257.428,395.097 257.874,395.695 258.015,396.518C257.109,396.26 256.584,395.719 256.476,394.873Z" style="fill:white;fill-rule:nonzero;"/>
        <path d="M162.838,610.676C163.768,610.747 164.41,611.14 164.667,611.964C163.789,611.835 163.186,611.4 162.838,610.676Z" style="fill:white;fill-rule:nonzero;"/>
        <path d="M251.667,389.508C252.576,389.699 253.101,390.21 253.27,391.02C252.43,390.772 251.894,390.268 251.667,389.508Z" style="fill:white;fill-rule:nonzero;"/>
        <path d="M250.187,388.023C251.125,388.232 251.62,388.79 251.781,389.612C250.888,389.367 250.352,388.842 250.187,388.023Z" style="fill:white;fill-rule:nonzero;"/>
        <path d="M304.633,432.282C305.586,432.399 306.239,432.825 306.476,433.684C305.505,433.587 304.899,433.11 304.633,432.282Z" style="fill:white;fill-rule:nonzero;"/>
        <path d="M371.931,211.223C372.124,210.608 372.151,210.52 372.178,210.435" style="fill:rgb(78,195,196);fill-rule:nonzero;"/>
        <path d="M372.132,210.582C372.278,210.47 373.572,205.205 373.878,204.37L373.985,204.041C374.499,201.973 375.003,199.9 375.468,197.81C375.954,195.626 376.197,194.376 376.438,193.063C376.953,190.264 374.961,187.582 371.858,186.895L361.753,185.879C357.337,184.9 358.451,185.507 350.936,184.378C350.624,184.331 349.407,184.468 349.096,184.52C348.205,184.669 347.69,184.98 346.65,186.087C346.405,186.347 346.366,186.028 346.196,186.847C345.675,189.353 346.351,187.057 344.112,195.044C343.693,196.696 343.289,198.122 342.644,199.721C342.412,200.347 342.193,200.978 342.034,201.623C342.027,201.652 342.021,201.682 342.017,201.712L341.556,203.817C341.514,204.12 341.191,207.567 341.414,207.801C342.708,209.166 343.359,209.712 345.345,209.945C352.824,210.821 360.371,211.7 367.845,212.606C368.856,212.729 371.635,212.089 371.931,211.223" style="fill:rgb(78,195,196);fill-rule:nonzero;"/>
        <path d="M136.365,212.042C135.852,210.839 135.529,210.243 135.844,208.973L135.418,202.971C135.069,199.792 134.467,196.614 134.432,193.431C134.378,188.603 135.96,187.196 141.603,186.47C144.35,186.116 141.603,186.47 149.888,186.426C159.952,188.097 159.907,189.769 162.053,198.264C162.059,199.856 162.951,204.106 163.178,205.672C163.974,211.165 159.757,211.414 154.012,213.272C148.609,215.018 145.479,216.229 137.678,214.011C137.166,213.518 136.975,212.454 136.365,212.042Z" style="fill:rgb(73,187,134);fill-rule:nonzero;"/>
        <path d="M29.315,361.09C30.693,364.09 34.61,365.462 37.938,364.125C41.131,362.842 44.612,361.201 47.844,359.798C48.319,359.592 48.816,359.361 49.323,359.115C52.822,357.421 54.027,353.475 51.909,350.479C50.708,348.781 49.558,347.057 48.486,345.282C47.514,343.675 45.361,342.917 43.43,343.544C43.417,343.548 43.404,343.552 43.391,343.556C39.657,344.773 36.075,346.449 32.084,346.97C31.314,347.07 30.604,347.389 30.006,347.831C28.21,349.162 26.333,350.444 25.963,352.649C25.869,353.214 25.973,353.794 26.195,354.33L27.752,358.094C27.824,358.27 27.908,358.442 28.025,358.598C28.362,359.05 28.817,360.008 29.315,361.09Z" style="fill:rgb(82,196,198);fill-rule:nonzero;"/>
        <path d="M337.008,182.342C331.358,182.387 325.662,180.993 320.011,181.039L318.845,180.669C315.668,178.893 317.455,178.168 318.281,175.577C318.553,175.203 319.262,172.99 319.737,171.724C321.654,167.352 318.605,174.353 321.654,167.352L321.645,167.363C322.894,164.539 322.287,165.414 322.894,164.539C324.073,163.3 324.344,161.777 326.432,160.824C332.087,159.737 337.807,160.46 343.485,160.488C347.024,160.506 348.942,162.669 347.836,165.538C345.774,170.89 345.266,174.584 341.336,180.891C339.832,182.165 338.267,182.386 337.008,182.342Z" style="fill:rgb(13,142,189);fill-rule:nonzero;"/>
        <path d="M384.219,143.479C385.027,147.243 382.349,151.829 380.571,155.392C380.225,156.084 379.621,156.654 378.851,156.982C374.134,158.986 369.224,157.711 364.003,157.129C359.58,156.636 358.861,155.265 360.336,151.551C364.034,142.244 363.193,140.654 374.595,140.806C375.88,140.823 378.917,140.968 381.192,141.105C382.692,141.194 383.938,142.169 384.219,143.479Z" style="fill:rgb(109,192,111);fill-rule:nonzero;"/>
        <path d="M313.261,177.416C310.454,179.365 306.637,178.392 303.624,177.401C300.417,176.347 299.041,174.533 300.386,171.557C302.106,167.756 303.224,163.707 306.148,160.394C308.755,159.004 309.855,159.627 314.332,159.732C318.383,160.685 318.654,160.189 319.511,161.67C320.421,163.123 319.221,164.508 318.324,167.073C317.182,169.334 318.324,167.073 315.357,174.117L315.369,174.114C314.982,174.897 315.131,174.782 314.761,175.494L314.428,176.011C313.982,176.784 313.835,176.945 313.261,177.416Z" style="fill:rgb(109,192,110);fill-rule:nonzero;"/>
        <path d="M377.844,120.662C381.588,119.869 385.384,119.687 389.16,120.285C392.117,120.753 393.505,122.094 392.401,125.067C391.02,128.787 389.478,132.247 385.09,133.951C382.003,133.918 378.906,134.028 375.836,133.817C371.668,133.531 370.331,131.72 371.657,128.293C372.845,125.223 374.72,122.527 377.844,120.662Z" style="fill:rgb(25,150,194);fill-rule:nonzero;"/>
        <path d="M338.824,156.37C332.292,156.266 330.719,153.901 333.562,148.459C336.323,143.175 343.079,140.703 349.103,142.724C351.598,143.56 351.747,145.32 351.385,147.196C350.375,152.447 344.813,156.466 338.824,156.37Z" style="fill:rgb(20,145,191);fill-rule:nonzero;"/>
        <path d="M356.391,121.485C361.1,121.44 362.353,123.357 360.09,127.148C358.048,130.57 353.465,132.282 349.567,131.105C347.813,130.575 347.179,129.572 347.55,127.947C348.371,124.359 352.202,121.526 356.391,121.485Z" style="fill:rgb(113,194,117);fill-rule:nonzero;"/>
        <path d="M322.768,139.828C324.74,139.937 326.255,140.461 326.416,142.55C326.683,146.017 322.096,150.658 318.466,150.519C316.138,150.43 315.478,149.089 315.372,147.309C315.161,143.777 318.955,139.933 322.768,139.828Z" style="fill:rgb(46,154,195);fill-rule:nonzero;"/>
        <path d="M336.078,119.428C337.917,119.896 338.985,120.848 338.603,122.438C337.999,124.952 336.035,126.424 333.201,126.48C331.409,126.515 330.42,125.192 330.904,123.646C331.631,121.321 333.315,119.713 336.078,119.428Z" style="fill:rgb(101,202,219);fill-rule:nonzero;"/>
        <path d="M366.364,108.085C365.428,107.831 364.291,107.833 364.125,106.632C363.878,104.855 367.116,102.473 369.469,102.74C370.674,102.877 371.271,103.682 371.28,104.622C371.296,106.473 368.867,108.111 366.364,108.085Z" style="fill:rgb(89,173,206);fill-rule:nonzero;"/>
        <path d="M23.117,314.034C24.359,313.732 25.599,313.421 26.845,313.13C32.983,311.699 32.984,311.701 36.482,316.841C36.187,319.607 33.78,321.145 31.932,323.006C21.689,325.505 19.222,323.666 21.371,315.132L21.226,315.3C21.593,314.603 22.205,314.143 23.006,313.871L23.117,314.034Z" style="fill:rgb(112,193,114);fill-rule:nonzero;"/>
        <path d="M35.968,340.343C35.365,339.959 34.755,339.619 34.137,339.308C33.681,339.47 33.228,339.604 32.788,339.697C32.801,339.828 32.807,339.974 32.803,340.096C32.778,340.865 32.571,341.526 32.239,342.088C32.293,342.09 32.347,342.091 32.401,342.093C33.273,341.995 34.186,342.039 34.93,341.507C35.691,341.332 36.452,341.156 37.213,340.982C36.787,340.805 36.369,340.599 35.968,340.343Z" style="fill:rgb(36,152,192);fill-rule:nonzero;"/>
        <path d="M5.544,317.844C7.095,317.859 8.645,317.874 10.195,317.889L10.173,317.872C13.231,319.028 12.073,321.862 13.172,323.798C13.224,325.498 12.781,327.066 11.597,328.434C8.459,329.02 5.019,331.763 2.57,327.436C2.614,325.678 2.659,323.92 2.703,322.162C3.651,320.723 4.598,319.283 5.544,317.844Z" style="fill:rgb(84,198,217);fill-rule:nonzero;"/>
        <path d="M304.253,202.08C303.839,202.704 303.982,202.724 303,203.764C302.809,203.966 302.586,204.153 302.336,204.295C300.816,205.154 299.144,205.577 297.356,205.669C297.04,205.685 296.716,205.643 296.412,205.568C294.004,204.978 293.051,204.99 291.526,203.921C290.886,203.474 290.486,202.805 290.413,202.086C290.047,198.514 291.303,195.141 292.448,191.78C295.105,183.983 298.799,182.76 306.365,187.344C307.125,187.804 307.619,188.558 307.652,189.375C307.827,193.592 305.644,197.397 304.562,201.394C304.498,201.633 304.394,201.868 304.253,202.08Z" style="fill:rgb(18,144,189);fill-rule:nonzero;"/>
        <path d="M380.266,175.345C380.449,174.745 381.13,169.548 381.345,168.957C381.79,167.732 382.366,166.166 380.761,164.508C379.453,163.154 375.381,162.985 372.841,163.001C369.513,163.02 362.25,161.874 358.927,162.039C352.906,162.338 353.329,164.12 351.714,169.44C351.307,170.783 350.501,173.357 350.029,174.683C349.898,175.051 348.514,176.886 348.743,179.486C348.953,181.88 349.816,181.485 356.777,182.577C362.602,183.49 368.486,184.122 374.327,185.003C376.264,185.295 378.101,184.155 378.466,182.442C378.975,180.062 379.552,177.692 380.266,175.345Z" style="fill:rgb(13,142,189);fill-rule:nonzero;"/>
        <path d="M138.31,157.925L139.825,156.59C144.74,156.443 149.61,154.94 153.382,159.024C155.262,163.963 154.296,169.148 155.048,174.184C153.107,180.008 148.458,181.8 142.019,181.396C138.928,181.202 136.846,180.032 136.677,177.45C136.251,170.9 134.512,164.212 138.31,157.925Z" style="fill:rgb(16,143,190);fill-rule:nonzero;"/>
        <path d="M397.002,111.023C396.445,111.483 395.724,111.755 394.965,111.793C393.809,111.85 392.653,111.919 391.504,111.864C385.65,111.588 385.433,109.648 385.833,106.419C385.933,105.608 386.315,104.838 386.909,104.215C387.473,103.621 387.878,103.285 388.373,102.802C388.57,102.61 388.783,102.428 389.033,102.292C390.651,101.408 393.116,100.902 395.382,101.013C397.55,101.12 399.5,101.462 400.711,103.253C401.973,105.117 401.275,106.852 399.961,108.348C399.101,109.327 398.038,110.166 397.002,111.023Z" style="fill:rgb(84,198,217);fill-rule:nonzero;"/>
        <path d="M200.377,146.752C204.523,145.594 208.695,144.505 212.806,143.255C215.958,142.297 218.684,142.822 219.934,145.527C221.929,152.096 223.156,157.115 221.928,164.508C220.398,167.751 220.318,166.337 214.178,168.947C207.029,170.355 214.178,168.947 204.131,170.934C200.352,171.681 198.037,170.97 197.073,167.79C195.472,162.51 195.202,157.075 195.472,151.634C195.607,148.922 198.826,148.453 200.377,146.752Z" style="fill:rgb(75,187,134);fill-rule:nonzero;"/>
        <path d="M230.647,194.903C229.499,188.727 229.499,188.727 226.69,177.052L224.878,175.504C222.882,174.359 220.153,174.141 217.092,175.099C212.453,176.55 204.535,177.291 199.928,178.823C197.412,181.28 197.312,182.48 198.062,185.622C199.332,190.94 199.928,196.933 202.017,204.342C202.045,204.671 202.073,205 202.104,205.327C202.472,205.911 202.968,206.387 203.62,206.729C204.313,206.975 205.029,207.119 205.773,207.158C212.334,206.825 218.302,204.472 224.487,202.861C225.057,202.973 228.583,200.843 230.639,199.568C230.639,197.992 230.885,196.402 230.647,194.903Z" style="fill:rgb(13,142,189);fill-rule:nonzero;"/>
        <path d="M18.346,392.173C17.817,391.162 17.326,390.134 16.753,389.144C12.783,382.285 13.419,381.013 21.272,377.689C22.01,377.441 21.247,377.699 22.01,377.441C31.229,376.033 30.209,376.904 35.511,383.751C39.476,393.15 39.994,392.818 28.741,395.522C25.939,396.195 23.265,396.438 20.844,395.794" style="fill:rgb(16,143,190);fill-rule:nonzero;"/>
        <path d="M52.591,275.318L57.251,272.606C66.365,268.293 63.367,269.797 66.365,268.293C70.517,267.371 72.946,268.591 74.161,272.43C75.724,277.369 78.917,281.997 77.14,287.443C72.9,289.583 68.701,291.79 64.41,293.844C59.191,296.344 54.78,295.244 52.799,290.442C50.779,285.546 48.947,280.391 52.591,275.318Z" style="fill:rgb(16,142,189);fill-rule:nonzero;"/>
        <path d="M211.31,90.384C213.035,95.668 212.948,100.473 210.413,105.51C210.048,106.234 209.328,106.771 208.451,106.924C204.765,107.571 199.807,107.997 196.452,108.5C193.1,109.003 190.996,107.644 190.921,104.402C190.884,102.806 190.852,96.951 190.834,95.356C190.729,86.055 198.785,86.315 208.954,88.403C210.084,88.635 210.987,89.396 211.31,90.384Z" style="fill:rgb(16,143,190);fill-rule:nonzero;"/>
        <path d="M27.35,365.966C27.21,366.947 27.089,367.795 26.949,368.775C26.466,369.2 25.984,369.626 25.502,370.051C23.092,370.638 20.566,370.987 18.301,371.868C15.129,373.101 12.213,372.618 9.246,371.643C8.093,370.315 7.664,371.368 6.037,367.947C5.694,365.309 5.105,362.664 5.52,360.041C5.693,358.943 6.438,357.981 7.535,357.45C10.555,355.992 13.77,355.092 17.299,354.795C20.525,354.525 22.611,355.611 24.126,357.957L25.781,362.05L25.789,362.069" style="fill:rgb(108,192,110);fill-rule:nonzero;"/>
        <path d="M215.262,114.675C207.929,111.957 201.801,116.177 195.167,117.48C193.261,117.905 192.64,119.647 191.189,120.538C191.191,124.9 190.951,129.275 191.268,133.619C191.567,137.714 194.335,140.309 198.049,139.547C204.743,138.174 211.881,137.395 216.938,132.46C217.135,132.038 217.319,131.615 217.493,131.191C216.555,125.704 215.732,120.203 215.262,114.675Z" style="fill:rgb(80,195,196);fill-rule:nonzero;"/>
        <path d="M99.567,228.742C97.939,224.118 97.303,224.07 94.428,224.073C94.237,224.184 94.619,223.963 94.428,224.073C91.87,224.601 91.379,224.8 89.347,225.417C84.831,228.036 80.295,230.626 75.621,233.019C75.396,233.429 75.621,233.019 74.456,233.884C72.844,235.154 72.844,235.154 72.804,236.56C71.503,240.759 73.987,244.462 74.757,248.392C75.459,251.974 77.426,252.964 81.51,253.267C81.51,253.267 85.768,251.493 89.131,250.599C89.629,250.218 92.098,249.387 92.678,249.114C95.284,248.066 97.89,247.018 100.497,245.969C103.23,243.398 103.703,240.538 102.331,237.209C101.196,234.456 100.555,231.547 99.567,228.742Z" style="fill:rgb(14,142,188);fill-rule:nonzero;"/>
        <path d="M348.345,97.244C349.211,96.803 352.118,97.121 353.078,97.365C357.945,98.604 357.877,99.35 354.827,103.298C353.943,104.442 352.884,105.481 351.846,106.531C351.295,107.089 350.55,107.738 349.729,107.601L343.197,106.509C339.761,105.936 343.575,103.103 344.845,101.004C345.668,99.646 346.995,97.932 348.345,97.244Z" style="fill:rgb(36,151,195);fill-rule:nonzero;"/>
        <path d="M71.283,195.138C72.74,191.333 75.222,190.047 78.849,188.122C82.695,187.442 84.303,188.988 83.62,192.244C82.679,196.729 78.897,199.142 74.647,201.005C72.821,201.805 71.626,200.781 71.337,199.236C71.088,197.904 71.284,196.506 71.283,195.138Z" style="fill:rgb(80,189,144);fill-rule:nonzero;"/>
        <path d="M398.032,91.167C397.962,86.764 401.626,85.12 405.554,85.389C406.879,85.481 408.082,85.818 408.613,87C409.269,88.458 408.564,89.66 407.325,90.568C404.378,92.728 399.678,93.286 397.962,91.113C397.963,91.113 398.032,91.167 398.032,91.167Z" style="fill:rgb(84,198,217);fill-rule:nonzero;"/>
        <path d="M46.312,251.745C48.48,249.472 48.191,250.281 51.178,248.018C51.428,247.971 54.478,246.101 54.723,246.037C58.412,245.08 61.62,239.998 65.437,243.039C69.081,245.942 70.215,250.86 69.853,255.539C69.749,256.884 69.294,258.207 68.999,259.54C67.996,260.457 66.994,261.375 65.991,262.292C62.094,264.43 62.094,264.43 58.236,266.451L55.153,267.872C48.375,269.938 46.912,269.202 45.36,263.687C44.195,259.548 44.145,255.611 46.312,251.745Z" style="fill:rgb(74,197,216);fill-rule:nonzero;"/>
        <path d="M49.337,226.872L53.934,224.033C55.386,223.587 56.816,223.068 58.296,222.711C60.01,222.296 61.268,222.72 61.729,224.442C63.083,229.496 63.764,234.355 58.144,237.996C56.506,239.057 55.433,239.834 53.937,241.069C53.211,241.294 52.153,242.068 51.46,242.357C45.125,244.995 42.583,243.538 42.799,237.403C42.958,232.896 45.975,229.804 49.337,226.872Z" style="fill:rgb(18,144,191);fill-rule:nonzero;"/>
        <path d="M141.189,102.12C141.999,101.901 144.151,101.868 144.316,101.142C151.599,99.986 154.049,102.454 151.642,108.536C150.968,110.239 149.908,111.74 148.482,113.032C146.414,113.27 144.402,113.284 142.736,111.906C142.22,110.135 141.704,108.365 141.189,106.594C142.417,105.477 140.897,103.548 141.189,102.12Z" style="fill:rgb(35,149,194);fill-rule:nonzero;"/>
        <path d="M74.24,212.219C73.995,212.509 73.628,212.948 73.322,213.604C72.888,214.536 73.148,215.166 72.773,216.439C72.446,217.543 72.285,218.521 72.29,219.373C72.304,221.614 75.121,222.966 77.259,221.773C81.282,219.527 85.246,217.196 89.236,214.903C90.179,214.361 90.772,213.425 90.72,212.43C90.645,210.957 90.098,209.474 89.582,208.042C88.793,205.852 86.8,206.062 84.886,206.219C84.171,206.278 83.626,206.712 82.976,206.983C80.615,207.967 81.483,207.504 80.615,207.967C80.108,208.238 80.615,207.967 76.526,210.285C75.502,210.866 75.711,210.481 74.24,212.219Z" style="fill:rgb(78,188,137);fill-rule:nonzero;"/>
        <path d="M366.419,86.42C363.547,87.884 360.765,84.321 363.354,82.488C363.375,82.473 363.396,82.459 363.417,82.444C364.663,81.57 366.182,81.067 367.601,81.949C368.815,82.702 368.531,83.703 368.224,84.693C368.034,85.307 367.58,85.83 366.957,86.146C366.777,86.237 366.598,86.329 366.419,86.42Z" style="fill:rgb(50,157,196);fill-rule:nonzero;"/>
        <path d="M49.377,184.087C50.719,183.146 50.344,183.294 52.345,182.566C54.108,182.557 56.138,182.208 56.845,184.203C57.795,186.88 57.787,189.67 56.131,192.084C55.112,193.569 53.803,194.624 51.907,195.91C51.218,196.172 50.536,196.449 49.84,196.694C44.551,198.563 42.674,197.47 43.33,192.735C43.54,191.226 44.352,189.782 44.888,188.309C46.136,186.583 47.881,185.494 49.377,184.087Z" style="fill:rgb(30,148,193);fill-rule:nonzero;"/>
        <path d="M49.051,221.044C48.631,221.196 45.114,222.433 43.457,221.013C42.759,220.415 42.631,219.298 42.684,217.089C42.723,215.456 42.879,213.185 43.394,210.459C44.365,206.415 44.615,205.694 52.521,203.464C52.728,203.387 57.116,201.817 59.147,203.59C60.202,204.513 60.211,206 60.199,208.652C60.191,210.356 60.275,216.452 59.428,217.005C55.178,219.777 56.865,218.779 49.051,221.044Z" style="fill:rgb(22,146,189);fill-rule:nonzero;"/>
        <path d="M20.671,299.785C21.142,299.444 21.488,299.131 22.459,298.723C22.651,298.642 22.862,298.588 23.072,298.552C25.232,298.181 27.468,297.339 28.697,299.77C30.024,302.395 27.975,303.84 25.929,305.032C25.725,305.151 25.5,305.242 25.267,305.307C24.097,305.634 23.308,305.901 21.982,305.59C21.423,305.46 20.922,305.152 20.584,304.737C19.716,303.67 19.505,302.48 19.72,301.21C19.816,300.647 20.174,300.145 20.671,299.785Z" style="fill:rgb(54,167,192);fill-rule:nonzero;"/>
        <path d="M233.478,205.092C232.397,205.376 229.27,203.692 229.27,203.692C221.606,206.705 222.988,205.83 217.045,209.081C215.548,209.729 214.232,210.3 213.072,210.826C214.073,211.386 214.835,212.225 215,213.275C215.117,214.02 215.331,214.738 215.578,215.446C215.721,215.595 215.865,215.742 215.996,215.912C218.654,219.369 218.991,223.7 219.011,227.761C219.012,227.827 218.997,227.884 218.995,227.948C219.079,228.088 219.153,228.233 219.235,228.374C219.914,228.88 220.431,229.573 220.679,230.446C221.267,230.388 221.855,230.328 222.442,230.257C223.225,228.674 224.95,227.171 226.963,227.098C225.495,224.838 226.027,221.388 229.682,220.38C233.174,219.416 236.603,219.324 240.068,219.564L233.478,205.092Z" style="fill:rgb(107,192,108);fill-rule:nonzero;"/>
        <path d="M203.518,0.68C201.687,-0.327 199.582,0.129 197.485,0.534C196.993,0.929 196.5,1.323 196.007,1.718C195.938,3.709 195.868,5.7 195.799,7.69C196.892,8.993 198.418,8.771 202.947,8.084C203.405,7.4 203.863,6.714 204.321,6.03C204.192,4.22 204.002,2.406 203.518,0.68Z" style="fill:rgb(51,157,197);fill-rule:nonzero;"/>
        <path d="M1.164,337.435C2.326,337.228 3.375,336.842 4.101,335.954C5.859,336.035 7.567,335.96 8.886,334.711C11.638,334.671 14.905,333.561 16.574,336.433C18.348,339.486 19.412,342.839 19.009,346.355C18.863,347.63 17.529,348.101 16.3,348.553C14.65,349.16 12.286,348.192 11.053,349.522C8.102,349.809 5.643,351.643 2.682,350.791C2.246,348.498 2.588,346.064 1.099,343.963C1.121,341.786 1.142,339.61 1.164,337.435Z" style="fill:rgb(26,149,194);fill-rule:nonzero;"/>
        <path d="M25.485,288.158C25.406,288.36 25.287,288.555 25.15,288.732C23.734,290.565 24.239,289.966 22.058,290.623C21.891,290.588 21.77,290.575 21.673,290.572C20.383,290.542 19.307,289.636 19.06,288.512C18.724,286.991 19.382,285.781 21.45,284.449C21.944,284.131 22.547,283.953 23.157,283.964C23.638,283.973 23.861,284.001 24.124,284.086C25.243,284.447 25.984,285.44 25.899,286.494C25.853,287.055 25.7,287.609 25.485,288.158Z" style="fill:rgb(64,163,201);fill-rule:nonzero;"/>
        <path d="M208.189,229.094C208.188,229.097 208.187,229.104 208.185,229.111C207.822,230.462 206.343,231.333 205.704,231.51C201.715,232.616 197.537,232.957 193.442,233.605C193.417,233.609 193.391,233.613 193.365,233.617C189.713,234.179 186.234,231.992 185.453,228.777C184.552,225.065 183.649,221.352 182.747,217.64C182.614,217.096 182.607,216.522 182.816,215.998C183.428,214.458 185.503,213.72 187.315,213.241C191.447,212.15 196.795,211.665 200.265,211.449C201.838,211.351 203.264,212.268 203.66,213.622C205.17,218.779 206.68,223.937 208.189,229.094Z" style="fill:rgb(14,142,188);fill-rule:nonzero;"/>
        <path d="M24.77,399.141C16.171,400.717 31.011,419.833 52.411,445.557C62.032,457.12 68.236,462.484 70.924,464.902C79.568,472.678 86.507,477.28 100.384,486.484C111.22,493.671 112.581,493.911 113.678,493.461C120.234,490.769 114.609,464.526 104.678,443.781C97.044,427.833 86.389,405.575 61.678,397.65C47.738,393.179 36.81,396.936 24.77,399.141Z" style="fill:rgb(13,141,188);fill-rule:nonzero;"/>
        <path d="M386.434,612.31C385.285,603.285 377.78,597.297 372.581,593.057C369.718,590.723 366.94,588.309 364.197,585.862C355.409,580.91 346.344,575.348 337.151,569.097C324.283,560.347 312.791,551.343 302.519,542.396C285.224,530.711 269.814,516.621 261.357,498.633C261.178,498.252 260.549,497.934 260.548,497.553C258.111,494.613 256.153,491.722 255.357,487.986C255.346,487.936 255.344,487.886 255.338,487.836C255.162,487.529 254.986,487.224 254.814,486.915C252.381,483.477 250.409,479.837 248.627,476.109C247.23,473.939 245.9,471.722 244.644,469.41C234.806,451.314 232.42,450.046 229.443,442.469C216.582,409.731 110.152,454.739 105.996,490.913C105.761,492.958 105.736,494.422 105.748,495.015C106.087,511.567 113.198,567.686 154.345,606.424C228.508,676.246 369.379,648.306 382.45,627.539C387.378,619.709 386.434,612.31 386.434,612.31Z" style="fill:rgb(13,141,188);fill-rule:nonzero;"/>
        <path d="M245.034,472.446C266.169,504.698 261.538,502.229 292.345,534.27C325.545,568.8 361.729,586.211 380.192,600.974C396.976,614.395 331.043,616.45 321.678,615.887C273.377,612.981 226.745,577.642 222.345,532.495C220.731,515.935 233.126,454.274 245.034,472.446Z" style="fill:rgb(13,141,188);fill-rule:nonzero;"/>
        <path d="M363.155,452.962C367.325,450.186 371.182,447.353 373.686,443.364C371.053,422.891 369.751,402.307 367.766,381.776C367.078,374.654 366.088,367.525 365.148,360.389C356.949,356.404 352.669,358.877 318.428,360.833C267.365,363.751 258.415,359.297 236.178,367.265C225.221,371.192 202.885,379.195 199.928,394.322C198.358,402.357 203.714,410.62 214.428,427.148C222.603,439.757 238.781,460.352 239.346,460.003C239.362,459.992 240.096,461.274 240.582,462.125C236.151,454.084 225.098,426.962 222.469,415.61C217.178,392.769 223.188,384.255 231.928,381.459C247.341,376.528 268.511,423.219 323.678,447.108C336.262,452.558 349.949,457.011 362.262,453.673C362.534,453.417 362.831,453.178 363.155,452.962Z" style="fill:rgb(13,141,188);fill-rule:nonzero;"/>
        <path d="M362.262,453.673C370.294,452.287 380.912,445.505 380.251,434.31C375.919,360.933 361.678,372.867 367.91,235.692C369.067,210.228 297.19,275.486 287.678,320.172C273.222,388.087 334.55,458.454 362.262,453.673Z" style="fill:rgb(13,141,188);fill-rule:nonzero;"/>
        <path d="M186.754,176.444L166.005,178.788C163.345,179.088 160.914,177.419 160.575,175.059L159.928,157.308C159.589,154.948 163.297,152.927 165.957,152.627L183.058,150.695C185.718,150.394 188.149,152.064 188.488,154.423L192.345,171.206C192.684,173.566 189.414,176.144 186.754,176.444Z" style="fill:rgb(78,195,196);fill-rule:nonzero;"/>
        <path d="M181.082,146.127L165.794,147.572C163.082,147.828 160.649,146.086 160.361,143.68L161.803,126.627C161.514,124.222 164.856,122.234 167.567,121.978L178.063,120.985C180.775,120.73 183.207,122.472 183.496,124.878L185.469,141.307C185.757,143.713 183.794,145.871 181.082,146.127Z" style="fill:rgb(16,143,190);fill-rule:nonzero;"/>
        <path d="M54.053,152.243L52.178,152.243C50.314,152.243 47.678,151.014 47.678,149.36L48.803,143.816C48.803,142.162 50.314,140.821 52.178,140.821L54.053,140.821C55.917,140.821 57.428,142.162 57.428,143.816L57.428,149.249C57.428,150.903 55.917,152.243 54.053,152.243Z" style="fill:rgb(88,199,216);fill-rule:nonzero;"/>
        <path d="M104.512,248.018C106.667,246.154 110.578,247.575 111.512,248.891C120.978,262.23 124.847,271.941 133.845,286.461C144.814,304.162 149.845,309.63 154.519,308.771C158.358,308.067 147.439,314.669 145.477,314.641C132.412,314.456 126.639,298.334 118.178,284.243C109.18,269.257 98.316,253.378 104.512,248.018Z" style="fill:rgb(13,141,188);fill-rule:nonzero;"/>
        <path d="M165.567,250.785C159.746,233.717 138.09,211.068 136.529,214.187C136.587,215.338 136.592,216.497 136.564,217.661C137.414,234.672 139.452,250.164 141.428,257.924C149.212,288.486 154.374,312.702 161.428,312.04C166.187,311.594 167.998,296.213 168.928,288.309C169.761,281.236 171.257,267.466 165.567,250.785Z" style="fill:rgb(13,141,188);fill-rule:nonzero;"/>
        <path d="M16.175,349.71L6.193,351.515C3.712,352.041 2.271,351.279 1.678,349.078L0.127,339.978C-0.465,337.777 1.064,335.567 3.544,335.04L11.749,333.298C14.229,332.772 16.721,334.129 17.315,336.329L19.591,344.773C20.185,346.973 18.655,349.184 16.175,349.71Z" style="fill:rgb(13,141,188);fill-rule:nonzero;"/>
        <path d="M11.347,328.212L5.127,329.541C2.898,329.861 1.921,327.143 1.561,325.165L1.596,320.699C1.236,318.722 2.056,317.713 4.286,317.393L8.357,316.808C10.587,316.488 12.687,317.832 13.047,319.81L13.706,323.422C14.066,325.4 13.576,327.892 11.347,328.212Z" style="fill:rgb(84,198,217);fill-rule:nonzero;"/>
        <path d="M39.455,341.219L32.502,342.736C30.078,343.266 27.629,341.951 27.032,339.801L26.633,334.576C26.036,332.425 27.662,330.989 30.087,330.46L36.106,329.146C38.53,328.617 39.932,329.369 40.529,331.52L42.764,336.366C43.36,338.517 41.879,340.69 39.455,341.219Z" style="fill:rgb(36,152,192);fill-rule:nonzero;"/>
        <path d="M148.018,114.261L143.198,114.261C141.116,114.261 139.428,112.764 139.428,110.917L140.4,103.59C140.4,101.743 142.596,100.865 144.678,100.865L148.018,100.865C150.099,100.865 152.534,103.025 152.534,104.872L151.787,110.917C151.787,112.764 150.099,114.261 148.018,114.261Z" style="fill:rgb(35,149,194);fill-rule:nonzero;"/>
        <path d="M176.553,114.261L166.471,115.205C164.053,115.205 161.524,112.962 161.524,110.817L163.327,100.345C163.327,98.201 165.66,96.557 168.077,96.557L176.575,96.557C178.992,96.557 180.952,98.295 180.952,100.44L180.952,109.217C180.952,111.362 178.971,114.261 176.553,114.261Z" style="fill:rgb(35,149,194);fill-rule:nonzero;"/>
        <path d="M149.481,149.258L141.994,149.258C138.919,149.258 134.431,146.876 134.431,144.148L137.406,128.583C137.406,125.855 138.919,124.513 141.994,124.513L149.481,124.513C152.556,124.513 155.048,126.724 155.048,129.452L155.048,144.319C155.048,147.047 152.556,149.258 149.481,149.258Z" style="fill:rgb(110,193,111);fill-rule:nonzero;"/>
        <path d="M234.757,228.179L216.97,231.397C213.83,231.965 210.764,230.167 210.123,227.38L207.147,214.437C206.506,211.65 208.534,208.93 211.675,208.361L229.27,203.692C232.412,203.124 235.669,206.374 236.309,209.16L240.705,220.609C241.345,223.396 237.898,227.61 234.757,228.179Z" style="fill:rgb(107,192,108);fill-rule:nonzero;"/>
        <path d="M246.638,253.38L227.349,258.599C224.355,259.409 219.924,259.25 219.011,256.594L215.217,240.545C214.304,237.889 217.325,234.603 220.318,233.793L237.845,229.976C240.838,229.166 244.098,231.137 245.011,233.793L250.405,247.105C251.318,249.76 249.631,252.57 246.638,253.38Z" style="fill:rgb(78,195,196);fill-rule:nonzero;"/>
    </g>
</svg>
